<svg width="164" height="32" viewBox="0 0 164 32" fill="none" xmlns="http://www.w3.org/2000/svg">
<path d="M11.6406 2.10865C11.6752 1.99754 11.7258 1.92593 11.7925 1.89507L12.6949 1.50248C13.5419 1.19754 14.6814 0.818524 15.548 0.575314L15.974 0.477783C15.9024 0.506178 15.848 0.577783 15.8122 0.693833C15.1628 0.918524 14.2987 1.22717 13.6653 1.49383C13.053 1.66297 12.2382 1.89507 11.6406 2.10865Z" fill="#222F5A"/>
<path d="M7.41699 4.73456C7.44292 4.65061 7.47749 4.59135 7.52317 4.55431L7.53798 4.54196C9.24292 3.27283 9.27502 3.24814 10.2343 2.69999L11.18 2.19135C11.1145 2.22344 11.0664 2.29381 11.033 2.40246C10.4466 2.7753 9.66761 3.279 9.10712 3.68888C8.59107 3.98888 7.90712 4.39629 7.41699 4.73456Z" fill="#222F5A"/>
<path d="M38.833 11.7568L38.8503 11.7691L39.2454 12.7185L38.833 11.7568Z" fill="#222F5A"/>
<path d="M37.5488 9.52472C37.555 9.50373 37.5661 9.49139 37.5785 9.48645C37.9143 10.0519 38.3562 10.8099 38.6575 11.3951L39.2451 12.7186L38.6352 11.426C38.318 10.8506 37.892 10.0852 37.5488 9.52472Z" fill="#222F5A"/>
<path d="M34.4004 5.77285C34.4152 5.7247 34.4374 5.69507 34.4671 5.68396C34.9238 6.13581 35.5276 6.74445 35.9572 7.22347C36.3436 7.72964 36.8547 8.40742 37.2164 8.93211C37.2004 8.93828 37.1893 8.9531 37.1806 8.97779C36.7942 8.48396 36.2732 7.82841 35.8547 7.35927C35.4263 6.87655 34.851 6.23581 34.4004 5.77285Z" fill="#222F5A"/>
<path d="M30.5186 2.91855C30.5408 2.84695 30.5741 2.8025 30.6198 2.78522C31.1692 3.11485 31.9 3.55929 32.4297 3.92102C32.9062 4.30867 33.5383 4.83213 33.9939 5.24448C33.963 5.25682 33.9383 5.28892 33.9223 5.34077C33.4321 4.97287 32.7729 4.48645 32.2581 4.15188C31.742 3.77287 31.0519 3.27287 30.5186 2.91855Z" fill="#222F5A"/>
<path d="M26.1035 1.04445C26.1319 0.951862 26.1739 0.896307 26.2307 0.874084C26.848 1.06915 27.6702 1.33705 28.2751 1.56915C28.8171 1.82964 29.5369 2.18149 30.0628 2.47285C30.0171 2.49013 29.9825 2.53705 29.9591 2.61112C29.3887 2.37902 28.6257 2.07532 28.0418 1.88149C27.4652 1.61976 26.6924 1.27532 26.1035 1.04445Z" fill="#222F5A"/>
<mask id="mask0_649_6031" style="mask-type:luminance" maskUnits="userSpaceOnUse" x="21" y="0" width="5" height="2">
<path d="M21.2451 6.10352e-05H25.6698V1.06796H21.2451V6.10352e-05Z" fill="white"/>
</mask>
<g mask="url(#mask0_649_6031)">
<path d="M21.3525 0.230917C21.3846 0.12351 21.4353 0.0580779 21.5007 0.0333862C22.1402 0.0840038 22.9945 0.154374 23.6303 0.243263L23.718 0.258078C24.2908 0.377831 25.055 0.543263 25.6192 0.698819C25.5612 0.721041 25.518 0.779066 25.4883 0.872893C24.8661 0.785239 24.034 0.674127 23.4069 0.628448C22.7933 0.496349 21.9723 0.325979 21.3525 0.230917Z" fill="#222F5A"/>
</g>
<mask id="mask1_649_6031" style="mask-type:luminance" maskUnits="userSpaceOnUse" x="16" y="0" width="5" height="1">
<path d="M16.1875 0H20.9282V0.751852H16.1875V0Z" fill="white"/>
</mask>
<g mask="url(#mask1_649_6031)">
<path d="M16.4619 0.559273C16.4977 0.444459 16.5508 0.372853 16.6224 0.345693L17.4656 0.200014C17.9557 0.149397 18.6088 0.0605076 19.1002 0.0284089L19.7027 -0.0012207L20.857 0.00618671C20.7903 0.0321126 20.7397 0.0987794 20.7064 0.207421C20.057 0.271619 19.1915 0.364212 18.5483 0.472854C17.9212 0.483965 17.0854 0.506187 16.4619 0.559273Z" fill="#222F5A"/>
</g>
<path d="M4.06543 8.19261C4.08024 8.14076 4.1 8.10002 4.12345 8.06916C4.44938 7.67163 4.8716 7.13212 5.21358 6.7494C5.74321 6.20496 6.45802 5.48644 7.01975 4.97656C6.97778 5.01236 6.94568 5.07039 6.92099 5.1494C6.44444 5.63335 5.81481 6.28397 5.36913 6.79508C4.96666 7.20372 4.4358 7.75434 4.06543 8.19261Z" fill="#222F5A"/>
<path d="M38.815 11.821C38.8125 11.8074 38.8125 11.7951 38.8125 11.7852L39.2458 12.7186L38.815 11.821Z" fill="#222F5A"/>
<path d="M36.1122 7.89262C36.1035 7.81114 36.0998 7.742 36.1023 7.68768C36.5011 8.16793 37.0282 8.81361 37.3961 9.31855C37.7381 9.87657 38.1912 10.6235 38.5073 11.1963C38.5073 11.2111 38.5085 11.2309 38.511 11.2544C38.1924 10.7469 37.7628 10.0704 37.4097 9.58522C37.0282 9.07163 36.3603 8.48151 36.1122 7.89262Z" fill="#222F5A"/>
<path d="M32.5792 4.79508C32.562 4.65187 32.557 4.53336 32.5607 4.43829C33.0595 4.78644 33.7225 5.25558 34.1965 5.63459C34.6484 6.10002 35.2459 6.72225 35.6755 7.2062C35.6731 7.26669 35.6768 7.34076 35.6879 7.43089C35.2595 7.05681 34.683 6.56175 34.2274 6.22101C33.7385 5.78644 32.8916 5.36916 32.5792 4.79508Z" fill="#222F5A"/>
<path d="M28.409 2.60245C28.3867 2.40862 28.3793 2.24566 28.3843 2.11603C28.9571 2.3222 29.7188 2.60615 30.2769 2.85183C30.8114 3.20986 31.5213 3.69257 32.0386 4.07529C32.0349 4.17529 32.0411 4.29998 32.0571 4.44936C31.5423 4.21603 30.8534 3.91109 30.3213 3.7185C29.7522 3.37652 28.9917 2.9222 28.409 2.60245Z" fill="#222F5A"/>
<path d="M23.802 1.39017C23.7749 1.15437 23.7662 0.956839 23.7724 0.800049C24.3922 0.859308 25.2193 0.946963 25.8329 1.0482C26.4255 1.28894 27.2131 1.61239 27.7922 1.88153C27.7872 2.0161 27.7959 2.18277 27.8181 2.384C27.2415 2.29758 26.4712 2.18894 25.8897 2.1482C25.2675 1.91116 24.4354 1.59881 23.802 1.39017Z" fill="#222F5A"/>
<path d="M18.9565 1.23089C18.9268 0.965459 18.9157 0.745706 18.9231 0.569163C19.5639 0.475335 20.4207 0.356817 21.0663 0.307434C21.6898 0.414842 22.5219 0.56299 23.1379 0.704965C23.1318 0.865459 23.1416 1.06546 23.1688 1.3062C22.5565 1.37287 21.7379 1.46793 21.1318 1.57904C20.4811 1.46176 19.6132 1.31237 18.9565 1.23089Z" fill="#222F5A"/>
<path d="M14.0701 2.19751C14.0393 1.91973 14.0269 1.68764 14.0343 1.50122C14.6701 1.24936 15.5207 0.917265 16.1726 0.708623C16.801 0.667882 17.6417 0.622203 18.2726 0.623438C18.2652 0.80245 18.2763 1.02467 18.3059 1.29257C17.6825 1.51356 16.8516 1.8185 16.243 2.08146C15.5911 2.10122 14.7207 2.13578 14.0701 2.19751Z" fill="#222F5A"/>
<path d="M9.46281 4.3C9.43071 4.02469 9.4196 3.79506 9.42701 3.61111C9.99985 3.21235 10.769 2.68519 11.3665 2.32469C11.9702 2.12716 12.7776 1.87037 13.3937 1.71729C13.3863 1.9037 13.3974 2.1358 13.4295 2.41482C12.8233 2.79259 12.0196 3.30371 11.4394 3.71976C10.8418 3.87901 10.0468 4.09877 9.46281 4.3Z" fill="#222F5A"/>
<path d="M5.65445 7.28397C5.62605 7.02842 5.61494 6.81484 5.62235 6.64447C6.08161 6.13953 6.70013 5.47163 7.18902 4.99508C7.68655 4.67286 8.35322 4.2494 8.87297 3.96545C8.86556 4.14817 8.87667 4.37657 8.90754 4.64941C8.4026 5.14323 7.7347 5.80743 7.25815 6.32842C6.76926 6.60126 6.11988 6.97286 5.65445 7.28397Z" fill="#222F5A"/>
<path d="M2.75772 10.9531C2.73303 10.7308 2.72316 10.5444 2.72933 10.3963C3.06637 9.81603 3.52069 9.04443 3.88859 8.4827C4.26637 8.05924 4.77501 7.49875 5.18365 7.10492C5.17624 7.27282 5.18735 7.48393 5.21575 7.73578C4.82563 8.31233 4.31081 9.08393 3.95032 9.67776C3.58118 10.0494 3.09353 10.5518 2.75772 10.9531Z" fill="#222F5A"/>
<path d="M0.853908 15.1185C0.83292 14.9408 0.826748 14.7939 0.831686 14.6753C1.03416 14.0469 1.30946 13.2099 1.54527 12.5926C1.79465 12.0901 2.13416 11.4222 2.41934 10.9383C2.41193 11.0827 2.42181 11.2642 2.4465 11.4815C2.18107 12.1087 1.83169 12.9469 1.59712 13.5852C1.36132 14.0383 1.05144 14.6469 0.853908 15.1185Z" fill="#222F5A"/>
<mask id="mask2_649_6031" style="mask-type:luminance" maskUnits="userSpaceOnUse" x="0" y="14" width="1" height="6">
<path d="M0 14.9741H0.701235V19.7149H0V14.9741Z" fill="white"/>
</mask>
<g mask="url(#mask2_649_6031)">
<path d="M0.0239439 19.5938C0.0103636 19.4716 0.00419073 19.3704 0.00789452 19.2889L0.0202402 19.0765L0.10666 18.1086L0.283203 16.8839C0.389376 16.3988 0.526413 15.7506 0.658512 15.2728C0.654808 15.3864 0.660981 15.5284 0.680734 15.6988C0.54987 16.3469 0.3795 17.2123 0.2795 17.8667C0.189376 18.3827 0.0757956 19.0728 0.0239439 19.5938Z" fill="#222F5A"/>
</g>
<path d="M37.6089 10.0395C37.6064 10.0297 37.604 10.0185 37.6015 10.0074C37.5867 9.942 37.5743 9.88274 37.5645 9.82965C37.899 10.3222 38.3398 10.984 38.6398 11.4988L39.2459 12.7185L38.6743 11.6655C38.362 11.1729 37.8459 10.5729 37.6089 10.0395Z" fill="#222F5A"/>
<path d="M34.5355 6.95556C34.5294 6.93086 34.5232 6.90617 34.5183 6.88148C34.4837 6.73086 34.4565 6.59383 34.4355 6.47284C34.8751 6.82222 35.4578 7.29506 35.8701 7.67778C36.2763 8.16914 36.8133 8.8284 37.1985 9.33827C37.2096 9.4 37.2232 9.47037 37.2417 9.54815C37.2442 9.5605 37.2467 9.57284 37.2504 9.58642C36.8923 9.22222 36.4109 8.73951 36.022 8.40864C35.5812 7.9679 34.8467 7.49506 34.5355 6.95556Z" fill="#222F5A"/>
<path d="M30.7209 4.6889C30.7123 4.65186 30.7036 4.61482 30.6962 4.57902C30.6444 4.35309 30.6036 4.14939 30.5703 3.96667C31.0913 4.16914 31.7827 4.44569 32.2839 4.6889C32.7925 5.10248 33.4678 5.6568 33.9604 6.09013C33.9827 6.21976 34.0123 6.36544 34.0493 6.52717C34.0555 6.5531 34.0617 6.58026 34.0678 6.60618C33.6172 6.38766 33.0111 6.10371 32.5419 5.9284C31.9987 5.55063 31.0999 5.22964 30.7209 4.6889Z" fill="#222F5A"/>
<path d="M26.3613 3.30247C26.3502 3.25432 26.3391 3.20741 26.3279 3.1605C26.2625 2.87284 26.2107 2.61358 26.1699 2.38025C26.7428 2.4321 27.5094 2.50864 28.0773 2.60618C28.6625 2.92716 29.4403 3.35926 30.0131 3.70124C30.0465 3.89136 30.0897 4.10371 30.1428 4.33828C30.1514 4.37655 30.16 4.41482 30.1687 4.45309C29.6477 4.38519 28.9502 4.30124 28.4242 4.27902C27.8082 3.97902 26.986 3.58272 26.3613 3.30247Z" fill="#222F5A"/>
<path d="M21.6509 2.85307C21.6386 2.79752 21.6262 2.7432 21.6139 2.68888C21.5386 2.35431 21.4769 2.05307 21.4287 1.7827C22.0324 1.6827 22.8398 1.55554 23.4485 1.50122C24.0843 1.7148 24.9312 2.00246 25.5559 2.2432C25.5978 2.48147 25.6522 2.7469 25.7188 3.04196C25.7299 3.09011 25.7411 3.13826 25.7522 3.18764C25.1843 3.27036 24.4275 3.38888 23.867 3.5148C23.2053 3.30739 22.3213 3.03579 21.6509 2.85307Z" fill="#222F5A"/>
<path d="M16.7866 3.40246C16.7731 3.3432 16.7595 3.2827 16.7459 3.22468C16.6644 2.86295 16.5978 2.53455 16.5459 2.24196C17.1545 1.98887 17.9706 1.65801 18.5953 1.4469C19.2545 1.53455 20.1323 1.65925 20.7854 1.78147C20.8336 2.05554 20.8953 2.36171 20.9718 2.69999C20.9854 2.75554 20.9978 2.8111 21.0101 2.86665C20.4212 3.10122 19.636 3.41974 19.0619 3.69135C18.3817 3.59381 17.4718 3.46912 16.7866 3.40246Z" fill="#222F5A"/>
<path d="M11.9713 5.00617C11.9565 4.94567 11.9429 4.88518 11.9293 4.82469C11.8453 4.45555 11.7774 4.12222 11.7256 3.82345C12.3145 3.41851 13.1034 2.88271 13.7145 2.51357C14.3688 2.46049 15.2416 2.39752 15.896 2.38641C15.9478 2.68148 16.0157 3.00987 16.0984 3.37407C16.1108 3.43333 16.1256 3.49382 16.1392 3.55432C15.5515 3.9358 14.77 4.45061 14.2034 4.86296C13.533 4.89382 12.6392 4.9395 11.9713 5.00617Z" fill="#222F5A"/>
<path d="M7.73483 7.51112C7.72125 7.45309 7.70767 7.39507 7.69532 7.33828C7.61507 6.98396 7.54964 6.66421 7.49902 6.37779C7.98668 5.86297 8.641 5.17902 9.15581 4.6926C9.73977 4.50371 10.5225 4.2605 11.1188 4.11359C11.1706 4.41112 11.2385 4.74445 11.3225 5.11235C11.3361 5.17285 11.3496 5.23334 11.3632 5.29383C10.8361 5.79877 10.1373 6.47532 9.6373 7.00495C9.06322 7.14445 8.29902 7.33581 7.73483 7.51112Z" fill="#222F5A"/>
<path d="M4.35102 10.6926C4.33867 10.6395 4.32633 10.5864 4.31522 10.5358C4.24238 10.2173 4.18435 9.92964 4.13867 9.67161C4.51151 9.08026 5.01275 8.29507 5.41522 7.72346C5.88312 7.42593 6.51151 7.03458 7.00164 6.77655C7.05225 7.05927 7.11645 7.37655 7.19546 7.72717C7.20781 7.78272 7.22139 7.84075 7.23497 7.89877C6.81398 8.48272 6.25596 9.26297 5.8609 9.86421C5.4004 10.1 4.78929 10.4198 4.35102 10.6926Z" fill="#222F5A"/>
<path d="M1.90213 14.3741C1.89225 14.3297 1.88238 14.2865 1.8725 14.2432C1.81201 13.9778 1.76262 13.7371 1.72559 13.5223C1.97373 12.8852 2.31077 12.0383 2.58978 11.4136C2.92929 11.026 3.38855 10.5124 3.76139 10.1544C3.80583 10.4074 3.86386 10.6902 3.93423 11.0025C3.94534 11.0531 3.95769 11.1037 3.97003 11.1556C3.66262 11.784 3.25769 12.6247 2.97497 13.2655C2.64164 13.5865 2.20213 14.021 1.90213 14.3741Z" fill="#222F5A"/>
<path d="M0.475849 18.3827C0.468442 18.3494 0.459799 18.3173 0.453627 18.2852C0.407947 18.0864 0.372145 17.9074 0.34375 17.7469C0.458565 17.0938 0.617824 16.2247 0.764738 15.579C0.965973 15.1185 1.24128 14.5062 1.48202 14.0654C1.51782 14.2741 1.56597 14.5062 1.624 14.7642C1.63387 14.8062 1.64375 14.8481 1.65363 14.8901C1.46844 15.5333 1.22647 16.3901 1.06844 17.0395C0.875849 17.4358 0.626466 17.9691 0.475849 18.3827Z" fill="#222F5A"/>
<mask id="mask3_649_6031" style="mask-type:luminance" maskUnits="userSpaceOnUse" x="0" y="18" width="1" height="5">
<path d="M0 18.1346H0.385185V22.5593H0V18.1346Z" fill="white"/>
</mask>
<g mask="url(#mask3_649_6031)">
<path d="M0.1507 22.5457C0.146996 22.5259 0.142058 22.5062 0.137119 22.4877C0.109959 22.3679 0.0889713 22.2605 0.0716872 22.163C0.0432924 21.5247 0.0111933 20.6728 0.0161316 20.0333C0.0704526 19.5185 0.14823 18.8333 0.240823 18.3259C0.267983 18.4778 0.302551 18.6482 0.345761 18.837C0.351934 18.8679 0.359342 18.8988 0.366749 18.9296C0.313663 19.5568 0.245761 20.3926 0.22107 21.021C0.186502 21.4778 0.146996 22.0877 0.1507 22.5457Z" fill="#222F5A"/>
</g>
<path d="M38.8679 12.0519C38.8593 12.0235 38.8519 11.9963 38.8457 11.9716L39.2457 12.7185L38.8679 12.0519Z" fill="#222F5A"/>
<path d="M36.4184 9.20124C36.3715 9.04074 36.3283 8.88766 36.29 8.74445C36.6579 9.08395 37.1444 9.54568 37.4802 9.91729C37.8123 10.3877 38.2518 11.0161 38.5629 11.5012C38.5728 11.542 38.5851 11.5864 38.5987 11.6333C38.3246 11.2877 37.9542 10.8284 37.6456 10.5123C37.2839 10.1136 36.6925 9.66543 36.4184 9.20124Z" fill="#222F5A"/>
<path d="M33.1121 7.0778C33.0294 6.79632 32.9541 6.53089 32.8887 6.28027C33.343 6.46669 33.9455 6.72472 34.38 6.95311C34.8356 7.3741 35.4418 7.93583 35.8837 8.37163C35.9257 8.53089 35.9726 8.69879 36.0245 8.87657C35.6492 8.67781 35.143 8.41731 34.7455 8.26176C34.259 7.9025 33.4652 7.56916 33.1121 7.0778Z" fill="#222F5A"/>
<path d="M29.1382 5.71975C29.0246 5.33703 28.9222 4.97283 28.832 4.63086C29.3481 4.66666 30.037 4.72098 30.5468 4.80123C31.1024 5.15925 31.8394 5.6395 32.3839 6.01234C32.453 6.27654 32.532 6.55679 32.6185 6.85308C32.1617 6.80123 31.5493 6.74197 31.0888 6.73703C30.5061 6.42839 29.7271 6.01728 29.1382 5.71975Z" fill="#222F5A"/>
<path d="M24.6868 5.17039C24.5497 4.70496 24.4263 4.26422 24.3164 3.84941C24.872 3.73582 25.6152 3.59015 26.1769 3.51978C26.8041 3.80002 27.6374 4.1778 28.2559 4.47657C28.3497 4.82842 28.4547 5.20373 28.5707 5.60002C28.0559 5.69755 27.3695 5.83459 26.8646 5.97286C26.2127 5.72718 25.3436 5.40126 24.6868 5.17039Z" fill="#222F5A"/>
<path d="M15.1126 6.6556C14.9521 6.10622 14.8052 5.58646 14.6768 5.09757C15.2471 4.69634 16.0113 4.16548 16.6015 3.7951C17.2891 3.86918 18.2052 3.97412 18.8891 4.07782C19.0126 4.54696 19.1533 5.04696 19.3076 5.57412C18.7471 5.95066 18.0027 6.45807 17.4607 6.86054C16.757 6.78893 15.8187 6.69881 15.1126 6.6556Z" fill="#222F5A"/>
<path d="M10.4936 8.70864C10.3331 8.16666 10.1887 7.65185 10.0615 7.1679C10.5739 6.64691 11.2628 5.95555 11.8023 5.46049C12.4714 5.40617 13.3652 5.34074 14.0368 5.32098C14.1652 5.80987 14.3121 6.3321 14.4739 6.88148C13.927 7.38148 13.1998 8.05185 12.6739 8.57407C12.0195 8.60494 11.1455 8.64938 10.4936 8.70864Z" fill="#222F5A"/>
<path d="M6.61315 11.3852C6.465 10.8815 6.33043 10.4012 6.21191 9.95184C6.62056 9.35801 7.17117 8.56789 7.60574 7.99134C8.17117 7.83209 8.92797 7.62468 9.50204 7.50122C9.6292 7.98147 9.77241 8.49258 9.93167 9.03209C9.47611 9.60739 8.87241 10.3753 8.43784 10.9667C7.88846 11.0802 7.15512 11.2383 6.61315 11.3852Z" fill="#222F5A"/>
<path d="M3.59255 14.5198C3.46292 14.0815 3.34563 13.6642 3.24316 13.2741C3.5407 12.6383 3.9407 11.7939 4.26292 11.1704C4.70613 10.9161 5.30242 10.5828 5.76539 10.3655C5.88267 10.8087 6.01477 11.2815 6.16168 11.7791C5.8086 12.3926 5.34193 13.2136 5.00983 13.8383C4.57897 14.0297 4.00489 14.2914 3.59255 14.5198Z" fill="#222F5A"/>
<path d="M1.51704 17.958C1.41457 17.6086 1.32197 17.2765 1.23926 16.9654C1.4158 16.321 1.65531 15.4617 1.85654 14.8247C2.16395 14.4901 2.58 14.0481 2.91951 13.7457C3.02074 14.1271 3.13432 14.5333 3.26025 14.9617C3.01827 15.5827 2.69852 16.4123 2.4763 17.0407C2.17876 17.3049 1.7837 17.6617 1.51704 17.958Z" fill="#222F5A"/>
<path d="M0.479186 21.5457C0.408816 21.305 0.344618 21.0778 0.289062 20.863C0.333507 20.2395 0.398939 19.4062 0.471779 18.7852C0.631038 18.3852 0.850791 17.8544 1.05079 17.4753C1.1298 17.7741 1.21993 18.0926 1.31869 18.4284C1.19524 19.0272 1.03351 19.8247 0.931038 20.4272C0.780421 20.7556 0.586594 21.2 0.479186 21.5457Z" fill="#222F5A"/>
<path d="M0.565481 25.1284C0.530913 25.0136 0.500048 24.9037 0.472888 24.8013C0.377826 24.226 0.255604 23.4581 0.191406 22.8778C0.193875 22.4309 0.202517 21.8334 0.245727 21.3877C0.298813 21.5877 0.358073 21.8 0.42474 22.0247C0.427209 22.5716 0.433382 23.3013 0.463011 23.8482C0.480295 24.2334 0.509925 24.747 0.565481 25.1284Z" fill="#222F5A"/>
<path d="M0.71752 25.8111L0.629866 25.484L0.587891 25.3173C0.611348 25.405 0.637273 25.4976 0.665668 25.5951L0.826162 26.1889C0.794064 26.0753 0.749619 25.9247 0.71752 25.8111Z" fill="#222F5A"/>
<path d="M37.905 11.0482C37.8667 10.9358 37.8322 10.8272 37.7988 10.7222C38.0877 11.0432 38.4655 11.479 38.7186 11.8284L39.2457 12.7185L38.8038 12.0901C38.5396 11.7728 38.1136 11.4037 37.905 11.0482Z" fill="#222F5A"/>
<path d="M35.2159 9.27166C35.1294 9.0124 35.048 8.76302 34.9727 8.52228C35.3541 8.68648 35.8615 8.91487 36.222 9.12228C36.6023 9.49759 37.1085 10.0013 37.4751 10.3902C37.5134 10.5136 37.5554 10.642 37.5998 10.7754C37.3048 10.6062 36.906 10.3865 36.5899 10.263C36.1801 9.96179 35.5196 9.67907 35.2159 9.27166Z" fill="#222F5A"/>
<path d="M31.7399 8.158C31.6103 7.76911 31.4893 7.39504 31.377 7.03455C31.8288 7.04936 32.4325 7.07529 32.8794 7.13578C33.3794 7.47529 34.0449 7.93084 34.5362 8.28269C34.6165 8.53949 34.7029 8.80862 34.7955 9.08516C34.4091 9.06294 33.8905 9.04319 33.5041 9.06788C32.9757 8.79257 32.1288 8.60739 31.7399 8.158Z" fill="#222F5A"/>
<path d="M27.6593 7.72346C27.4951 7.2284 27.3407 6.75062 27.1963 6.2926C27.6988 6.16297 28.3704 5.9963 28.8815 5.90741C29.4741 6.19877 30.2642 6.58889 30.8518 6.8926C30.9679 7.26667 31.0938 7.65679 31.2284 8.0605C30.7728 8.18272 30.1667 8.35432 29.7235 8.51482C29.1049 8.27408 28.2802 7.95556 27.6593 7.72346Z" fill="#222F5A"/>
<path d="M23.1591 7.98768C22.9677 7.4136 22.7875 6.85928 22.6221 6.32595C23.1542 6.06051 23.8678 5.70866 24.4159 5.47656C25.0752 5.70372 25.9542 6.0099 26.6085 6.25187C26.7554 6.72101 26.9134 7.21113 27.0826 7.71854C26.5813 7.97656 25.9147 8.32718 25.4295 8.61484C24.7505 8.42224 23.8418 8.16916 23.1591 7.98768Z" fill="#222F5A"/>
<path d="M18.4206 8.96917C18.2132 8.34694 18.0181 7.74448 17.8379 7.16793C18.3823 6.77164 19.1107 6.24818 19.6737 5.87781C20.3712 6.02596 21.3009 6.22472 21.9947 6.39139C22.1638 6.93089 22.3453 7.49386 22.5391 8.07657C22.0132 8.45929 21.3144 8.97287 20.8046 9.37781C20.0897 9.24941 19.1379 9.08151 18.4206 8.96917Z" fill="#222F5A"/>
<path d="M13.6387 10.6802C13.4264 10.0457 13.2276 9.43209 13.0449 8.84444C13.577 8.32962 14.2906 7.64567 14.8437 7.15308C15.5511 7.19999 16.4931 7.26789 17.198 7.34197C17.3795 7.92221 17.5758 8.52839 17.7844 9.15431C17.2523 9.6469 16.5449 10.3074 16.0276 10.816C15.3116 10.7679 14.356 10.7074 13.6387 10.6802Z" fill="#222F5A"/>
<path d="M5.78748 15.5877C5.60476 15.0395 5.43439 14.5099 5.27637 14.0037C5.61958 13.384 6.08007 12.5593 6.44303 11.9506C6.98254 11.8161 7.70476 11.642 8.25168 11.5408C8.42575 12.0988 8.61464 12.6803 8.81464 13.2827C8.42205 13.8803 7.89983 14.6803 7.52205 15.2877C6.99983 15.3679 6.30353 15.4778 5.78748 15.5877Z" fill="#222F5A"/>
<path d="M3.10197 18.4593C2.95011 18.0025 2.8069 17.5605 2.6748 17.1371C2.90937 16.5136 3.22542 15.684 3.47974 15.0692C3.89209 14.8568 4.44765 14.5803 4.87728 14.4037C5.03283 14.9013 5.20073 15.421 5.37974 15.9581C5.08468 16.5544 4.69332 17.3519 4.41184 17.9544C4.01431 18.0939 3.48468 18.2852 3.10197 18.4593Z" fill="#222F5A"/>
<path d="M1.37151 21.4346C1.25793 21.0926 1.15052 20.763 1.05176 20.4469C1.16904 19.8506 1.3283 19.0556 1.46534 18.463C1.73447 18.184 2.10114 17.8161 2.40114 17.5692C2.52954 17.9803 2.66781 18.4074 2.81596 18.8506C2.62583 19.4161 2.37645 20.1704 2.20114 20.7408C1.94312 20.9371 1.59991 21.205 1.37151 21.4346Z" fill="#222F5A"/>
<path d="M0.689991 24.3815C0.62209 24.1765 0.557892 23.9778 0.497398 23.7877C0.486287 23.2469 0.476411 22.5235 0.489991 21.9827C0.602337 21.6494 0.759127 21.2062 0.914682 20.8914C1.00851 21.1926 1.10974 21.5062 1.21839 21.8296C1.14308 22.337 1.04431 23.0123 0.987522 23.5222C0.882584 23.7741 0.750485 24.1161 0.689991 24.3815Z" fill="#222F5A"/>
<path d="M1.03569 26.8494C0.994951 26.726 0.941865 26.5618 0.901124 26.4371L0.87026 26.3334L0.643099 25.4741C0.588778 25.1013 0.522111 24.6025 0.509766 24.226C0.564087 24.3988 0.622112 24.5778 0.68384 24.7642C0.729519 25.1889 0.793716 25.7543 0.869025 26.1741C0.918408 26.3766 0.970259 26.6519 1.03569 26.8494Z" fill="#222F5A"/>
<path d="M38.9816 12.3902C38.9681 12.3544 38.9557 12.3198 38.9434 12.2852L39.2458 12.7186L38.9816 12.3902Z" fill="#222F5A"/>
<path d="M37.0612 11.1284C36.9859 10.9247 36.9156 10.7247 36.8477 10.5297C37.1452 10.663 37.539 10.8507 37.8131 11.0284C38.0909 11.3198 38.46 11.7111 38.723 12.0173C38.7427 12.0729 38.7625 12.1309 38.7847 12.1902C38.5847 12.0593 38.3119 11.8902 38.0884 11.8062C37.7822 11.6013 37.2909 11.4173 37.0612 11.1284Z" fill="#222F5A"/>
<path d="M34.2317 10.4371C34.1021 10.0815 33.9786 9.73212 33.8613 9.39385C34.2366 9.3778 34.7391 9.36545 35.1132 9.39755C35.5317 9.6778 36.0873 10.0531 36.4996 10.3432C36.5737 10.558 36.6527 10.779 36.7342 11.005C36.428 11.0198 36.0206 11.0506 35.7206 11.1099C35.2749 10.9074 34.6786 10.6383 34.2317 10.4371Z" fill="#222F5A"/>
<path d="M30.6663 10.3087C30.4898 9.82224 30.3207 9.34569 30.1602 8.88273C30.5972 8.72964 31.1836 8.53088 31.633 8.4173C32.1663 8.67656 32.8774 9.02347 33.4071 9.2889C33.5305 9.64693 33.6614 10.0136 33.7972 10.3877C33.412 10.5445 32.9009 10.7617 32.5318 10.9506C31.9725 10.758 31.2268 10.5 30.6663 10.3087Z" fill="#222F5A"/>
<path d="M22.0255 11.705C21.786 11.0445 21.5564 10.3976 21.3379 9.76672C21.8465 9.36795 22.528 8.83956 23.0539 8.46301C23.7391 8.64079 24.6515 8.8803 25.3342 9.06919C25.533 9.64203 25.7416 10.2309 25.9589 10.8309C25.4774 11.2284 24.8379 11.7618 24.3712 12.1778C23.6688 12.0334 22.7305 11.842 22.0255 11.705Z" fill="#222F5A"/>
<path d="M12.6543 15.1963C12.4061 14.5099 12.1666 13.8358 11.9395 13.1803C12.416 12.6037 13.0543 11.8371 13.5481 11.2753C14.2654 11.3099 15.2234 11.358 15.9395 11.4124C16.1703 12.0766 16.4123 12.758 16.6641 13.4543C16.1592 14.0198 15.4864 14.7753 14.995 15.3519C14.2925 15.3013 13.3567 15.2358 12.6543 15.1963Z" fill="#222F5A"/>
<path d="M8.62442 17.421C8.39232 16.7815 8.1701 16.1543 7.95898 15.5445C8.34787 14.942 8.8701 14.1395 9.2738 13.5469C9.9022 13.5185 10.7405 13.484 11.3701 13.4766C11.596 14.1284 11.8331 14.7976 12.0812 15.4815C11.6491 16.0667 11.075 16.8482 10.6553 17.442C10.0454 17.4297 9.23306 17.4148 8.62442 17.421Z" fill="#222F5A"/>
<path d="M5.34047 19.7692C5.13924 19.2124 4.94541 18.6679 4.7627 18.1383C5.05652 17.5395 5.45035 16.7432 5.75776 16.1519C6.27504 16.0605 6.9664 15.9432 7.48739 15.879C7.69603 16.479 7.91455 17.0975 8.14294 17.7272C7.79603 18.3013 7.33554 19.0667 6.99726 19.6445C6.49973 19.6741 5.83554 19.7161 5.34047 19.7692Z" fill="#222F5A"/>
<path d="M1.43519 24.4173C1.32531 24.1124 1.21914 23.8149 1.11914 23.5247C1.19445 23.021 1.29815 22.3519 1.39075 21.8507C1.62778 21.6433 1.95001 21.3704 2.21297 21.1976C2.35371 21.6037 2.50186 22.0198 2.65618 22.4457C2.50309 22.9112 2.29815 23.5321 2.15371 24.0013C1.93149 24.1136 1.63519 24.2679 1.43519 24.4173Z" fill="#222F5A"/>
<path d="M1.02522 26.5062C0.972131 26.3605 0.921513 26.2173 0.873365 26.0778C0.822748 25.663 0.761019 25.1074 0.736328 24.6889C0.806698 24.4395 0.906699 24.1062 1.02275 23.8741C1.11658 24.1457 1.21534 24.4235 1.31904 24.7074C1.27337 25.0827 1.21411 25.5827 1.18571 25.9593C1.12151 26.1173 1.04374 26.3358 1.02522 26.5062Z" fill="#222F5A"/>
<path d="M1.18257 27.2729C1.148 27.1741 1.10232 27.0432 1.06776 26.9457L0.925781 26.4C0.966522 26.5185 1.00973 26.6395 1.05541 26.7642C1.10603 26.9543 1.16158 27.2124 1.22825 27.3976L1.18257 27.2729Z" fill="#222F5A"/>
<path d="M38.3696 12.3297C38.319 12.1988 38.2696 12.0704 38.2227 11.9432C38.4276 12.0346 38.7004 12.1679 38.8794 12.3037L39.2461 12.7185L38.9967 12.6124C38.8091 12.5284 38.5103 12.479 38.3696 12.3297Z" fill="#222F5A"/>
<path d="M36.2804 12.2124C36.1643 11.9136 36.052 11.6173 35.9434 11.326C36.2347 11.2717 36.6261 11.205 36.9224 11.1964C37.2384 11.3852 37.6606 11.6371 37.9742 11.8309C38.0298 11.9803 38.0878 12.1322 38.1471 12.2865C37.9285 12.3507 37.6397 12.447 37.4347 12.5482C37.0878 12.4494 36.6261 12.3173 36.2804 12.2124Z" fill="#222F5A"/>
<path d="M33.335 12.5605C33.1609 12.1124 32.993 11.6692 32.8301 11.2321C33.1955 11.0469 33.6844 10.8025 34.0646 10.6494C34.5177 10.8395 35.1214 11.0926 35.5745 11.284C35.6918 11.5951 35.8116 11.9124 35.9363 12.2321C35.6288 12.4346 35.2239 12.7111 34.9338 12.9358C34.4535 12.826 33.8128 12.6778 33.335 12.5605Z" fill="#222F5A"/>
<path d="M29.692 13.3371C29.4711 12.7667 29.2562 12.2013 29.0488 11.6445C29.4723 11.3371 30.039 10.9321 30.4797 10.6494C31.0439 10.8321 31.797 11.0753 32.3612 11.2581C32.5315 11.7124 32.7056 12.1741 32.8871 12.6395C32.5106 12.9618 32.013 13.3963 31.6525 13.7346C31.0636 13.6173 30.2797 13.4605 29.692 13.3371Z" fill="#222F5A"/>
<path d="M25.5206 14.5074C25.2638 13.8445 25.0132 13.1877 24.7725 12.542C25.2379 12.1284 25.8601 11.5803 26.3404 11.184C26.991 11.3494 27.8564 11.5691 28.5058 11.7358C28.7194 12.3062 28.9391 12.8852 29.1651 13.4704C28.7367 13.8951 28.1688 14.463 27.7527 14.9C27.0836 14.7827 26.1897 14.6272 25.5206 14.5074Z" fill="#222F5A"/>
<path d="M16.2468 17.8852C15.9629 17.1519 15.6876 16.4259 15.4209 15.7124C15.9184 15.1395 16.5826 14.3778 17.0913 13.8148C17.8271 13.9025 18.8098 14.021 19.5444 14.121C19.8073 14.8259 20.0789 15.542 20.3592 16.2654C19.8715 16.8296 19.2209 17.5827 18.7394 18.1519C17.9913 18.0704 16.995 17.9617 16.2468 17.8852Z" fill="#222F5A"/>
<path d="M8.03949 21.8025C7.79382 21.1704 7.55678 20.5445 7.32715 19.9284C7.67283 19.3543 8.13703 18.5901 8.49135 18.021C9.09629 18.0247 9.90246 18.0346 10.5074 18.0556C10.7605 18.7333 11.0222 19.4222 11.2913 20.1173C10.9 20.6728 10.3802 21.4136 9.99258 21.9716C9.4074 21.9173 8.62591 21.8457 8.03949 21.8025Z" fill="#222F5A"/>
<path d="M4.98178 23.6469C4.77684 23.1185 4.57931 22.5963 4.38672 22.0815C4.64351 21.5519 4.98795 20.8445 5.25092 20.3173C5.74104 20.279 6.39783 20.2321 6.88919 20.2161C7.11512 20.821 7.34845 21.4346 7.58796 22.0543C7.27684 22.558 6.86079 23.2296 6.54845 23.7334C6.07931 23.7013 5.45215 23.6617 4.98178 23.6469Z" fill="#222F5A"/>
<path d="M2.7755 25.3087C2.62241 24.9148 2.47426 24.5247 2.33105 24.1408C2.48784 23.679 2.69772 23.0642 2.86315 22.605C3.21994 22.5222 3.69772 22.4173 4.06069 22.363C4.24711 22.8617 4.4397 23.3679 4.63723 23.879C4.41254 24.3062 4.11254 24.8753 3.88785 25.3012C3.55328 25.2963 3.10883 25.2914 2.7755 25.3087Z" fill="#222F5A"/>
<path d="M1.5345 26.7136C1.44314 26.4766 1.35302 26.242 1.2666 26.0099C1.31228 25.6408 1.37524 25.1494 1.4345 24.7827C1.63574 24.6556 1.90981 24.4938 2.12957 24.4012C2.2666 24.7667 2.40734 25.1383 2.55179 25.5124C2.42339 25.8395 2.25302 26.2766 2.1271 26.605C1.94808 26.6284 1.70734 26.6593 1.5345 26.7136Z" fill="#222F5A"/>
<path d="M1.35771 27.742L1.30215 27.5951L1.25401 27.468C1.19475 27.2531 1.1108 26.9667 1.07129 26.747C1.09598 26.5914 1.13425 26.3791 1.20586 26.2396C1.28487 26.4482 1.36512 26.6618 1.44783 26.8766C1.42438 27.0852 1.39351 27.3655 1.3861 27.5754C1.36882 27.6223 1.34413 27.6927 1.35771 27.742Z" fill="#222F5A"/>
<path d="M39.1316 12.7815C39.1168 12.7432 39.1008 12.705 39.0859 12.6667L39.2452 12.7185L39.1316 12.7815Z" fill="#222F5A"/>
<path d="M37.9234 13.3543C37.8333 13.1358 37.7456 12.9173 37.6592 12.7C37.8518 12.6037 38.1135 12.4753 38.3209 12.4161C38.511 12.4864 38.7654 12.5803 38.9579 12.6432C38.9826 12.7062 39.0073 12.7692 39.0345 12.8334C38.9184 12.9581 38.7678 13.1309 38.6654 13.2679C38.4431 13.3037 38.1468 13.3445 37.9234 13.3543Z" fill="#222F5A"/>
<path d="M32.7185 15.6074C32.5049 15.0865 32.295 14.5667 32.0889 14.0494C32.4432 13.7099 32.9173 13.2593 33.2876 12.9371C33.7679 13.0395 34.4099 13.1766 34.8938 13.2704C35.0518 13.6692 35.2136 14.0704 35.3778 14.4716C35.0827 14.8383 34.6901 15.3309 34.4049 15.7062C33.8987 15.6828 33.2234 15.647 32.7185 15.6074Z" fill="#222F5A"/>
<path d="M29.0286 17.1581C28.7693 16.5272 28.515 15.8976 28.2656 15.2692C28.6767 14.8334 29.2261 14.2531 29.6483 13.8284C30.2385 13.9395 31.0249 14.0877 31.6162 14.1926C31.8274 14.726 32.0446 15.263 32.2644 15.7988C31.9014 16.2581 31.4199 16.8716 31.0656 17.3371C30.4545 17.2877 29.6385 17.2198 29.0286 17.1581Z" fill="#222F5A"/>
<path d="M11.3233 24.3901C11.0418 23.7062 10.7665 23.0222 10.4961 22.3408C10.8912 21.7864 11.4183 21.0457 11.8158 20.4926C12.4949 20.5655 13.4023 20.6618 14.0813 20.7395C14.3689 21.4667 14.664 22.1976 14.9652 22.9284C14.5356 23.4753 13.964 24.2037 13.5344 24.7494C12.8714 24.642 11.9862 24.4976 11.3233 24.3901Z" fill="#222F5A"/>
<path d="M4.77889 26.9618C4.58383 26.4877 4.39247 26.0136 4.20605 25.5433C4.44186 25.121 4.75667 24.5593 4.99247 24.1371C5.46161 24.1692 6.08754 24.2149 6.55544 24.2605C6.78507 24.8383 7.01964 25.4186 7.25791 26C6.96532 26.3939 6.57272 26.9186 6.27272 27.3075C5.82457 27.2013 5.22828 27.0605 4.77889 26.9618Z" fill="#222F5A"/>
<path d="M2.72 27.7334C2.58667 27.4087 2.4558 27.0828 2.32617 26.7593C2.46815 26.4371 2.65457 26.0075 2.79531 25.6852C3.12741 25.6889 3.57185 25.6988 3.90272 25.7223C4.08296 26.1741 4.26691 26.6297 4.45457 27.0852C4.24469 27.3729 3.96444 27.7556 3.74346 28.0346C3.43728 27.942 3.02864 27.8198 2.72 27.7334Z" fill="#222F5A"/>
<path d="M1.64104 28.0988C1.57684 27.942 1.51388 27.7852 1.45215 27.6296C1.48178 27.4259 1.52499 27.1556 1.56449 26.9543C1.73857 26.9259 1.97437 26.8975 2.15091 26.8951C2.27067 27.1975 2.39289 27.5025 2.51882 27.8062C2.404 27.9692 2.25091 28.1877 2.12499 28.3408C1.97931 28.2692 1.75091 28.2173 1.64104 28.0988Z" fill="#222F5A"/>
<path d="M1.53363 28.179C1.45585 27.9877 1.45585 27.9877 1.41758 27.8926L1.38672 27.8124C1.39166 27.7852 1.39906 27.7494 1.40524 27.7235L1.41758 27.7161C1.46944 27.8482 1.52376 27.9803 1.57808 28.1136C1.56697 28.1383 1.56573 28.184 1.54104 28.1975L1.53363 28.179Z" fill="#222F5A"/>
<path d="M38.9318 13.7025C38.875 13.5717 38.8183 13.4396 38.7627 13.3075C38.8578 13.1667 38.9837 12.9778 39.0911 12.8457L39.2454 12.7186L39.2257 13.1605C39.1541 13.3321 39.0479 13.5581 38.9318 13.7025Z" fill="#222F5A"/>
<path d="M37.5739 15.3642C37.4431 15.0642 37.3147 14.7617 37.1875 14.4593C37.3813 14.1889 37.6406 13.8296 37.8468 13.5691C38.0776 13.5407 38.3875 13.5 38.6122 13.4395C38.6776 13.5951 38.7443 13.7506 38.811 13.9049C38.6986 14.2173 38.5492 14.6346 38.4356 14.9482C38.1838 15.0852 37.8418 15.2617 37.5739 15.3642Z" fill="#222F5A"/>
<path d="M35.2704 17.2791C35.0754 16.8309 34.8828 16.3778 34.6914 15.9235C34.9704 15.5433 35.342 15.0383 35.6321 14.6667C36.0136 14.6655 36.5247 14.6618 36.905 14.6371C37.042 14.9618 37.1803 15.2852 37.3198 15.6062C37.1112 16.0235 36.8346 16.5815 36.6297 17C36.2247 17.0951 35.6815 17.2136 35.2704 17.2791Z" fill="#222F5A"/>
<path d="M14.8706 27.2568C14.5644 26.5531 14.2607 25.8432 13.9619 25.1309C14.3952 24.5864 14.9718 23.8593 15.4039 23.3148C16.136 23.4124 17.1125 23.5432 17.8459 23.6358C18.1582 24.379 18.473 25.1173 18.7915 25.8494C18.336 26.3975 17.7273 27.1272 17.2656 27.6716C16.5471 27.5506 15.5878 27.3877 14.8706 27.2568Z" fill="#222F5A"/>
<path d="M10.7724 28.4642C10.4971 27.8309 10.2242 27.1914 9.95508 26.5506C10.3292 26.0753 10.8279 25.4395 11.1983 24.9605C11.8575 25.0741 12.7378 25.2247 13.3983 25.3383C13.6946 26.0445 13.9946 26.7469 14.2971 27.4432C13.8872 27.9111 13.3403 28.5334 12.9217 28.9938C12.2761 28.8358 11.4156 28.6259 10.7724 28.4642Z" fill="#222F5A"/>
<path d="M7.26279 29.2062C7.03316 28.6778 6.80477 28.1445 6.58008 27.6087C6.88625 27.2235 7.29242 26.7087 7.59119 26.3173C8.15415 26.4346 8.90477 26.5914 9.46773 26.7124C9.73193 27.342 9.99983 27.9692 10.2702 28.5902C9.91712 28.9581 9.44551 29.4482 9.08131 29.805C8.53563 29.626 7.80724 29.3877 7.26279 29.2062Z" fill="#222F5A"/>
<path d="M4.47863 29.463C4.30702 29.0679 4.13665 28.6692 3.96875 28.2692C4.19468 27.9938 4.49468 27.6247 4.70949 27.3408C5.1527 27.4519 5.74406 27.6037 6.18604 27.7198C6.40455 28.2395 6.62554 28.7556 6.84776 29.2679C6.56505 29.5222 6.1848 29.858 5.88604 30.0926C5.46258 29.905 4.80208 29.7914 4.47863 29.463Z" fill="#222F5A"/>
<path d="M2.56034 29.2124C2.45663 28.9741 2.35416 28.7346 2.25293 28.4951C2.3875 28.3457 2.56157 28.1433 2.68379 27.984C2.98503 28.0852 3.38626 28.2198 3.68626 28.3247C3.84676 28.705 4.00849 29.084 4.17145 29.4593C3.96898 29.584 3.69738 29.7507 3.47886 29.8445C3.20108 29.6568 2.76898 29.4729 2.56034 29.2124Z" fill="#222F5A"/>
<path d="M1.67726 28.5198L1.65627 28.4716C1.63035 28.4074 1.59331 28.3235 1.56738 28.2593C1.59207 28.2481 1.62294 28.2247 1.63899 28.2012C1.77602 28.2901 1.95874 28.4062 2.09948 28.4901C2.19084 28.7074 2.28343 28.9247 2.37726 29.1395C2.26121 29.1296 2.10072 29.1062 2.00072 29.0469C1.89948 28.8914 1.75504 28.6877 1.67726 28.5198Z" fill="#222F5A"/>
<path d="M39.3029 13.1729C39.2868 13.1371 39.2696 13.1 39.2535 13.063L39.2461 12.7186L39.3029 13.1729Z" fill="#222F5A"/>
<path d="M38.8911 15.5815C38.7973 15.3766 38.7022 15.1679 38.6084 14.9568C38.7059 14.6371 38.8356 14.2111 38.9306 13.8902C39.0368 13.721 39.1726 13.4864 39.2319 13.2963C39.259 13.3568 39.2862 13.4173 39.3133 13.4766C39.3146 13.8445 39.3133 14.3346 39.2998 14.7013C39.1936 14.9729 39.0442 15.3334 38.8911 15.5815Z" fill="#222F5A"/>
<mask id="mask4_649_6031" style="mask-type:luminance" maskUnits="userSpaceOnUse" x="3" y="29" width="4" height="3">
<path d="M3.54492 29.5123H6.70542V32H3.54492V29.5123Z" fill="white"/>
</mask>
<g mask="url(#mask4_649_6031)">
<path d="M4.16343 31.0531C4.02269 30.7482 3.88195 30.4371 3.74121 30.1222C3.96714 30.0235 4.26714 29.8827 4.47825 29.7531C4.898 29.9568 5.4585 30.2284 5.88195 30.4272C6.07825 30.8679 6.27578 31.3025 6.47208 31.7284C6.18319 31.8222 5.79553 31.9432 5.49553 31.9951C5.09306 31.7161 4.47331 31.4321 4.16343 31.0531Z" fill="#222F5A"/>
</g>
<path d="M2.33333 29.6914C2.26543 29.5445 2.19876 29.3951 2.13086 29.2445C2.25308 29.2951 2.42592 29.3544 2.55802 29.3556C2.82963 29.5643 3.19382 29.8396 3.47284 30.0383C3.6037 30.3322 3.7358 30.6235 3.86666 30.9075C3.65061 30.8569 3.35926 30.7778 3.15926 30.6803C2.90493 30.389 2.53333 30.0223 2.33333 29.6914Z" fill="#222F5A"/>
<path d="M1.7971 28.7865C1.77117 28.7297 1.73661 28.6531 1.71191 28.5951C1.79463 28.7432 1.8971 28.9445 1.99216 29.0852C2.05019 29.2136 2.10698 29.3395 2.165 29.4642L1.90945 29.0309C1.87488 28.9581 1.8292 28.8605 1.7971 28.7865Z" fill="#222F5A"/>
<path d="M39.5214 14.9766C39.4696 14.8704 39.414 14.7581 39.3572 14.6396L39.356 14.6359C39.3535 14.2605 39.3486 13.7593 39.3276 13.384L39.2461 12.7186L39.4597 13.6556C39.4942 14.0507 39.535 14.5803 39.5214 14.9766Z" fill="#222F5A"/>
<path d="M39.4621 13.4926C39.4498 13.4692 39.435 13.4433 39.4214 13.4149L39.2461 12.7186L39.4621 13.4926Z" fill="#222F5A"/>
<path d="M39.5745 13.6704C39.5658 13.6605 39.5572 13.6482 39.5473 13.6346L39.2461 12.7186L39.5745 13.6704Z" fill="#222F5A"/>
<path d="M57.819 11.7313H55.5742V4.29248H63.9921V6.19099H57.819V7.57606H62.2847V9.2477H57.819V11.7313Z" fill="#222F5A"/>
<path d="M70.8569 11.9104C69.6778 11.9104 68.7554 11.794 68.0868 11.5641C67.4181 11.3253 66.9345 10.9402 66.642 10.4059C66.3465 9.86561 66.2002 9.11636 66.2002 8.16114V4.29248H68.445V9.8686C69.5345 9.91636 70.3375 9.94024 70.8569 9.94024C71.3644 9.94024 72.1703 9.91636 73.2689 9.8686V4.29248H75.5136V8.16114C75.5136 9.11636 75.3614 9.86561 75.0599 10.4059C74.7644 10.9402 74.2838 11.3253 73.6151 11.5641C72.9524 11.794 72.033 11.9104 70.8569 11.9104Z" fill="#222F5A"/>
<path d="M83.5834 11.7313H81.3506V6.19105H77.7207V4.29254H87.2132V6.19105H83.5834V11.7313Z" fill="#222F5A"/>
<path d="M94.0835 11.9104C92.9044 11.9104 91.982 11.794 91.3133 11.5641C90.6447 11.3253 90.1611 10.9402 89.8685 10.4059C89.573 9.86561 89.4268 9.11636 89.4268 8.16114V4.29248H91.6715V9.8686C92.7611 9.91636 93.5641 9.94024 94.0835 9.94024C94.5909 9.94024 95.3969 9.91636 96.4954 9.8686V4.29248H98.7402V8.16114C98.7402 9.11636 98.588 9.86561 98.2865 10.4059C97.9909 10.9402 97.5103 11.3253 96.8417 11.5641C96.179 11.794 95.2596 11.9104 94.0835 11.9104Z" fill="#222F5A"/>
<path d="M111.287 11.6716V11.7313H108.398L105.675 9.15224H104.314V11.7313H102.069V4.29254H108.099C109.156 4.29254 109.932 4.49553 110.428 4.9015C110.929 5.30747 111.18 5.91344 111.18 6.71642C111.18 7.47463 110.965 8.05374 110.535 8.45971C110.111 8.85971 109.448 9.08657 108.541 9.1403L111.287 11.6716ZM108.816 6.02388H104.314V7.58806H108.816V6.02388Z" fill="#222F5A"/>
<path d="M122.785 11.7313H114.164V4.29248H122.618V6.10741H116.409V7.24173H120.934V8.78203H116.409V9.91636H122.785V11.7313Z" fill="#222F5A"/>
<path d="M130.217 11.7313V4.29254H135.59C136.647 4.29254 137.482 4.41194 138.097 4.65075C138.709 4.88956 139.154 5.27762 139.435 5.80896C139.712 6.34329 139.853 7.0806 139.853 8.01791C139.853 8.94926 139.712 9.68359 139.435 10.2149C139.154 10.7493 138.709 11.1343 138.097 11.3731C137.482 11.6119 136.647 11.7313 135.59 11.7313H130.217ZM132.462 6.19105V9.83284H137.405V6.19105H132.462Z" fill="#222F5A"/>
<path d="M151.535 11.7313H142.914V4.29248H151.368V6.10741H145.159V7.24173H149.684V8.78203H145.159V9.91636H151.535V11.7313Z" fill="#222F5A"/>
<path d="M159.903 11.7313H156.524L153.24 4.35224V4.29254H155.688L158.231 10.2149H158.291L160.894 4.29254H163.246V4.35224L159.903 11.7313Z" fill="#222F5A"/>
<path d="M60.7802 27.7074C58.8697 27.7074 57.1981 27.6238 55.7653 27.4567L55.6936 25.4626C57.1265 25.6537 58.2727 25.7791 59.1324 25.8328C59.9832 25.8805 60.9862 25.9253 62.1414 25.9641V24.7582L58.1772 24.4597C57.2847 24.382 56.6279 24.1611 56.2071 23.8029C55.7832 23.4447 55.5742 22.9194 55.5742 22.2268C55.5742 21.4328 55.8608 20.8477 56.4339 20.4716C57.013 20.0985 57.9205 19.9104 59.1563 19.9104C60.4518 19.9104 62.0608 19.991 63.9802 20.1492L64.0518 22.1313C62.6429 21.9492 61.3593 21.8179 60.2071 21.7373C59.4339 21.6895 58.6727 21.6626 57.9265 21.6537V22.8238L61.6877 23.1223C62.6578 23.2029 63.3653 23.4208 63.813 23.7791C64.2668 24.1373 64.4936 24.6746 64.4936 25.391C64.4936 26.1731 64.2071 26.7522 63.6339 27.1343C63.0608 27.5164 62.1085 27.7074 60.7802 27.7074Z" fill="#222F5A"/>
<path d="M71.9463 27.7075C70.6388 27.7075 69.6179 27.5821 68.8776 27.3373C68.1373 27.0926 67.603 26.6896 67.2776 26.1314C66.9493 25.5761 66.7881 24.803 66.7881 23.8149C66.7881 22.812 66.9463 22.0328 67.2657 21.4746C67.5911 20.9194 68.1254 20.5194 68.8657 20.2806C69.606 20.0358 70.6329 19.9105 71.9463 19.9105C73.2657 19.9105 74.2985 20.0358 75.0388 20.2806C75.7791 20.5194 76.3075 20.9194 76.6269 21.4746C76.9523 22.0328 77.1164 22.812 77.1164 23.8149C77.1164 24.803 76.9523 25.5761 76.6269 26.1314C76.3075 26.6896 75.7791 27.0926 75.0388 27.3373C74.2985 27.5821 73.2657 27.7075 71.9463 27.7075ZM71.9463 25.7373C72.8538 25.7373 73.7612 25.7134 74.6687 25.6657V21.9403C73.6567 21.9015 72.7493 21.8806 71.9463 21.8806C71.1493 21.8806 70.2508 21.9015 69.2478 21.9403V25.6657C70.1463 25.7134 71.0448 25.7373 71.9463 25.7373Z" fill="#222F5A"/>
<path d="M87.6772 27.5284H80.1787V20.0896H82.4235V25.6299H87.6772V27.5284Z" fill="#222F5A"/>
<path d="M94.6616 27.7075C93.4825 27.7075 92.5601 27.5911 91.8914 27.3612C91.2228 27.1224 90.7392 26.7374 90.4467 26.203C90.1512 25.6627 90.0049 24.9135 90.0049 23.9583V20.0896H92.2497V25.6657C93.3392 25.7135 94.1422 25.7374 94.6616 25.7374C95.1691 25.7374 95.975 25.7135 97.0735 25.6657V20.0896H99.3183V23.9583C99.3183 24.9135 99.1661 25.6627 98.8646 26.203C98.5691 26.7374 98.0885 27.1224 97.4198 27.3612C96.7571 27.5911 95.8377 27.7075 94.6616 27.7075Z" fill="#222F5A"/>
<path d="M107.389 27.5284H105.156V21.9881H101.526V20.0896H111.019V21.9881H107.389V27.5284Z" fill="#222F5A"/>
<path d="M120.206 27.5284H112.91V25.7374H115.501V21.8687H112.91V20.0896H120.206V21.8687H117.627V25.7374H120.206V27.5284Z" fill="#222F5A"/>
<path d="M127.936 27.7075C126.628 27.7075 125.607 27.5821 124.867 27.3373C124.127 27.0926 123.592 26.6896 123.267 26.1314C122.939 25.5761 122.777 24.803 122.777 23.8149C122.777 22.812 122.936 22.0328 123.255 21.4746C123.58 20.9194 124.115 20.5194 124.855 20.2806C125.595 20.0358 126.622 19.9105 127.936 19.9105C129.255 19.9105 130.288 20.0358 131.028 20.2806C131.768 20.5194 132.297 20.9194 132.616 21.4746C132.942 22.0328 133.106 22.812 133.106 23.8149C133.106 24.803 132.942 25.5761 132.616 26.1314C132.297 26.6896 131.768 27.0926 131.028 27.3373C130.288 27.5821 129.255 27.7075 127.936 27.7075ZM127.936 25.7373C128.843 25.7373 129.75 25.7134 130.658 25.6657V21.9403C129.646 21.9015 128.739 21.8806 127.936 21.8806C127.139 21.8806 126.24 21.9015 125.237 21.9403V25.6657C126.136 25.7134 127.034 25.7373 127.936 25.7373Z" fill="#222F5A"/>
<path d="M138.314 27.5284H136.165V20.0896H139.867L143.27 26.012H143.329V20.0896H145.478V27.5284H141.777L138.374 21.606H138.314V27.5284Z" fill="#222F5A"/>
<path d="M153.529 27.7074C151.619 27.7074 149.947 27.6238 148.514 27.4567L148.443 25.4626C149.875 25.6537 151.022 25.7791 151.881 25.8328C152.732 25.8805 153.735 25.9253 154.89 25.9641V24.7582L150.926 24.4597C150.034 24.382 149.377 24.1611 148.956 23.8029C148.532 23.4447 148.323 22.9194 148.323 22.2268C148.323 21.4328 148.61 20.8477 149.183 20.4716C149.762 20.0985 150.67 19.9104 151.905 19.9104C153.201 19.9104 154.81 19.991 156.729 20.1492L156.801 22.1313C155.392 21.9492 154.108 21.8179 152.956 21.7373C152.183 21.6895 151.422 21.6626 150.675 21.6537V22.8238L154.437 23.1223C155.407 23.2029 156.114 23.4208 156.562 23.7791C157.016 24.1373 157.243 24.6746 157.243 25.391C157.243 26.1731 156.956 26.7522 156.383 27.1343C155.81 27.5164 154.858 27.7074 153.529 27.7074Z" fill="#222F5A"/>
</svg>
